<mxfile host="app.diagrams.net" modified="2022-07-01T05:35:38.720Z" agent="5.0 (Windows NT 10.0; Win64; x64) AppleWebKit/537.36 (KHTML, like Gecko) Chrome/102.0.0.0 Safari/537.36" etag="Kw7YdHJP0mdbkSPncDcL" version="20.0.3" type="github">
  <diagram id="1hnCR2_O_5UTsHnxyPqx" name="第 1 页">
    <mxGraphModel dx="1185" dy="655" grid="1" gridSize="10" guides="1" tooltips="1" connect="1" arrows="1" fold="1" page="1" pageScale="1" pageWidth="827" pageHeight="1169" math="0" shadow="0">
      <root>
        <mxCell id="0" />
        <mxCell id="1" parent="0" />
        <mxCell id="YqvcR2UuEQLrkVzSO90b-6" value="BaseDao" style="swimlane;" vertex="1" parent="1">
          <mxGeometry x="330" y="150" width="200" height="60" as="geometry" />
        </mxCell>
        <mxCell id="YqvcR2UuEQLrkVzSO90b-7" value="ProductionBillsDao" style="swimlane;" vertex="1" parent="1">
          <mxGeometry x="22" y="280" width="200" height="60" as="geometry" />
        </mxCell>
        <mxCell id="YqvcR2UuEQLrkVzSO90b-8" value="QualityTestingBillsDao" style="swimlane;" vertex="1" parent="1">
          <mxGeometry x="330" y="280" width="200" height="60" as="geometry" />
        </mxCell>
        <mxCell id="YqvcR2UuEQLrkVzSO90b-9" value="MaterialRequisitionDao" style="swimlane;" vertex="1" parent="1">
          <mxGeometry x="600" y="280" width="200" height="60" as="geometry" />
        </mxCell>
        <mxCell id="YqvcR2UuEQLrkVzSO90b-10" value="ProductionBillsDaoImpl" style="swimlane;" vertex="1" parent="1">
          <mxGeometry x="22" y="400" width="200" height="60" as="geometry" />
        </mxCell>
        <mxCell id="YqvcR2UuEQLrkVzSO90b-11" value="QualityTestingBillsDaoImpl" style="swimlane;" vertex="1" parent="1">
          <mxGeometry x="330" y="400" width="200" height="60" as="geometry" />
        </mxCell>
        <mxCell id="YqvcR2UuEQLrkVzSO90b-12" value="MaterialRequisitionDaoImpl" style="swimlane;" vertex="1" parent="1">
          <mxGeometry x="600" y="400" width="200" height="60" as="geometry" />
        </mxCell>
      </root>
    </mxGraphModel>
  </diagram>
</mxfile>
